<svg width="200" height="60" viewBox="0 0 200 60" xmlns="http://www.w3.org/2000/svg"><title>Splash_LOGO_White</title><g fill="#FFF" fill-rule="evenodd"><path d="M55.238 18.66c-5.361 0-9.7 4.726-9.7 10.511 0 5.89 4.339 10.653 9.7 10.653 5.362 0 9.7-4.55 9.7-10.653 0-6.032-4.338-10.511-9.7-10.511m1.411 30.088c-4.339 0-8.254-1.658-11.111-4.41V59.26h-9.77V10.511h9.347v4.022c2.927-2.963 6.984-4.762 11.534-4.762 9.912 0 18.025 8.395 18.025 19.435-.036 11.076-8.113 19.542-18.025 19.542M77.072.212h9.7v47.76h-9.7zM108.607 18.66c-5.362 0-9.7 4.656-9.7 10.723 0 5.926 4.338 10.511 9.7 10.511 5.361 0 9.7-4.726 9.7-10.511 0-5.926-4.339-10.723-9.7-10.723zm19.4 29.312h-9.277V43.95c-2.928 3.068-6.984 4.797-11.605 4.797-9.841 0-18.024-8.395-18.024-19.436 0-11.076 8.148-19.506 18.024-19.506 4.621 0 8.677 1.728 11.605 4.797v-4.092h9.277v37.46zM199.965 47.972h-9.7V26.138c0-2.187-.741-7.126-7.055-7.126-4.339 0-7.337 2.893-7.337 7.126v21.834h-9.77V.212h9.77v12.345c2.434-1.799 5.362-2.892 8.677-2.892 9.277 0 15.415 6.596 15.415 16.473v21.834M152.84 22.54c-.212-3.95-1.94-5.574-6.138-5.574-3.175 0-5.15 1.34-5.15 3.598 0 1.623 1.235 2.646 4.056 3.387l7.443 1.904c7.443 1.905 10.83 5.291 10.83 10.865 0 7.407-6.28 12.098-16.332 12.098-10.935 0-17.073-4.762-17.214-13.439h10.547c-.07 3.95 2.222 5.961 6.56 5.961 3.457 0 5.715-1.41 5.715-3.597 0-2.329-1.87-3.528-6.949-4.621-6.878-1.447-9.347-2.399-11.71-4.48-2.011-1.834-3.246-4.55-3.246-7.231 0-7.266 6.208-11.817 15.979-11.817 9.982 0 15.838 4.833 15.767 12.91H152.84M22.54 22.54c-.212-3.95-1.94-5.574-6.138-5.574-3.174 0-5.15 1.34-5.15 3.598 0 1.623 1.235 2.646 4.057 3.387l7.442 1.904c7.443 1.905 10.83 5.291 10.83 10.865 0 7.407-6.28 12.098-16.332 12.098C6.314 48.818.176 44.056.035 35.38h10.547c-.07 3.95 2.222 5.961 6.56 5.961 3.458 0 5.715-1.41 5.715-3.597 0-2.329-1.87-3.528-6.949-4.621-6.878-1.447-9.347-2.399-11.71-4.48C2.116 26.843.882 24.127.882 21.446.882 14.18 7.09 9.63 16.86 9.63c9.982 0 15.837 4.832 15.767 12.91H22.54"/></g></svg>