<?xml version="1.0" encoding="UTF-8" standalone="no"?>
<svg width="200px" height="60px" viewBox="0 0 200 60" version="1.1" xmlns="http://www.w3.org/2000/svg" xmlns:xlink="http://www.w3.org/1999/xlink">
    <!-- Generator: Sketch 3.8.3 (29802) - http://www.bohemiancoding.com/sketch -->
    <title>Splash_LOGO_White</title>
    <desc>Created with Sketch.</desc>
    <defs></defs>
    <g id="Page-1" stroke="none" stroke-width="1" fill="none" fill-rule="evenodd">
        <g id="Splash_LOGO_White" fill="#FFFFFF">
            <g id="Group">
                <path d="M55.2380952,18.659612 C49.8765432,18.659612 45.5379189,23.3862434 45.5379189,29.1710758 C45.5379189,35.0617284 49.8765432,39.8236332 55.2380952,39.8236332 C60.5996473,39.8236332 64.9382716,35.2733686 64.9382716,29.1710758 C64.9382716,23.1393298 60.5996473,18.659612 55.2380952,18.659612 M56.64903,48.7477954 C52.3104056,48.7477954 48.3950617,47.0899471 45.5379189,44.3386243 L45.5379189,59.2592593 L35.7671958,59.2592593 L35.7671958,10.5114638 L45.1146384,10.5114638 L45.1146384,14.5326279 C48.042328,11.5696649 52.0987654,9.7707231 56.64903,9.7707231 C66.5608466,9.7707231 74.6737213,18.1657848 74.6737213,29.2063492 C74.638448,40.2821869 66.5608466,48.7477954 56.64903,48.7477954" id="Shape"></path>
                <rect id="Rectangle-path" x="77.0723104" y="0.211640212" width="9.70017637" height="47.7601411"></rect>
                <path d="M108.606702,18.659612 C103.24515,18.659612 98.9065256,23.3156966 98.9065256,29.382716 C98.9065256,35.308642 103.24515,39.8941799 108.606702,39.8941799 C113.968254,39.8941799 118.306878,35.1675485 118.306878,29.382716 C118.306878,23.4567901 113.968254,18.659612 108.606702,18.659612 L108.606702,18.659612 Z M128.007055,47.9717813 L118.730159,47.9717813 L118.730159,43.9506173 C115.802469,47.0194004 111.746032,48.7477954 107.12522,48.7477954 C97.2839506,48.7477954 89.1005291,40.3527337 89.1005291,29.3121693 C89.1005291,18.2363316 97.2486772,9.80599647 107.12522,9.80599647 C111.746032,9.80599647 115.802469,11.5343915 118.730159,14.6031746 L118.730159,10.5114638 L128.007055,10.5114638 L128.007055,47.9717813 L128.007055,47.9717813 Z" id="Shape"></path>
                <path d="M199.964727,47.9717813 L190.26455,47.9717813 L190.26455,26.1375661 C190.26455,23.9506173 189.52381,19.0123457 183.209877,19.0123457 C178.871252,19.0123457 175.873016,21.9047619 175.873016,26.1375661 L175.873016,47.9717813 L166.102293,47.9717813 L166.102293,0.211640212 L175.873016,0.211640212 L175.873016,12.5573192 C178.306878,10.7583774 181.234568,9.664903 184.550265,9.664903 C193.82716,9.664903 199.964727,16.2610229 199.964727,26.1375661 L199.964727,47.9717813" id="Shape"></path>
                <path d="M152.839506,22.5396825 C152.627866,18.5890653 150.899471,16.9664903 146.70194,16.9664903 C143.527337,16.9664903 141.552028,18.3068783 141.552028,20.5643739 C141.552028,22.1869489 142.786596,23.2098765 145.608466,23.9506173 L153.051146,25.8553792 C160.493827,27.7601411 163.880071,31.1463845 163.880071,36.7195767 C163.880071,44.1269841 157.601411,48.8183422 147.548501,48.8183422 C136.613757,48.8183422 130.47619,44.0564374 130.335097,35.3791887 L140.881834,35.3791887 C140.811287,39.329806 143.104056,41.340388 147.442681,41.340388 C150.899471,41.340388 153.156966,39.9294533 153.156966,37.7425044 C153.156966,35.4144621 151.287478,34.2151675 146.208113,33.1216931 C139.329806,31.675485 136.86067,30.7231041 134.497354,28.6419753 C132.486772,26.8077601 131.252205,24.0917108 131.252205,21.4109347 C131.252205,14.1446208 137.460317,9.59435626 147.231041,9.59435626 C157.213404,9.59435626 163.068783,14.4268078 162.998236,22.5044092 L152.839506,22.5044092" id="Shape"></path>
                <path d="M22.5396825,22.5396825 C22.3280423,18.5890653 20.5996473,16.9664903 16.4021164,16.9664903 C13.2275132,16.9664903 11.2522046,18.3068783 11.2522046,20.5643739 C11.2522046,22.1869489 12.4867725,23.2098765 15.308642,23.9506173 L22.7513228,25.8553792 C30.1940035,27.7601411 33.5802469,31.1463845 33.5802469,36.7195767 C33.5802469,44.1269841 27.3015873,48.8183422 17.2486772,48.8183422 C6.31393298,48.8183422 0.176366843,44.0564374 0.0352733686,35.3791887 L10.5820106,35.3791887 C10.5114638,39.329806 12.8042328,41.340388 17.1428571,41.340388 C20.5996473,41.340388 22.8571429,39.9294533 22.8571429,37.7425044 C22.8571429,35.4144621 20.9876543,34.2151675 15.9082892,33.1216931 C9.02998236,31.675485 6.56084656,30.7231041 4.19753086,28.6419753 C2.11640212,26.8430335 0.881834215,24.1269841 0.881834215,21.4462081 C0.881834215,14.1798942 7.08994709,9.62962963 16.8606702,9.62962963 C26.8430335,9.62962963 32.6984127,14.4620811 32.627866,22.5396825 L22.5396825,22.5396825" id="Shape"></path>
            </g>
        </g>
    </g>
</svg>